<svg width="33" height="38" viewBox="0 0 33 38" fill="none" xmlns="http://www.w3.org/2000/svg">
<rect width="32.7264" height="32.7264" rx="8" fill="#DDA6FF"/>
<path fill-rule="evenodd" clip-rule="evenodd" d="M32.7264 17.3573C32.7259 19.1805 32.7214 20.7746 32.6766 22.1756C29.5513 23.2768 24.9925 23.3485 21.38 22.7232L21.0183 15.3233C18.4897 13.8726 13.7629 12.4775 6.59393 14.4524C7.04938 10.7249 10.1157 4.00124 18.7377 6.92704C21.3392 7.80981 23.6817 9.8792 24.0415 13.605C26.4131 14.351 30.1624 15.8433 32.7264 17.3573Z" fill="#25242E"/>
<path d="M32.7264 17.3573L32.8764 17.3573L32.8764 17.2717L32.8026 17.2281L32.7264 17.3573ZM32.6766 22.1756L32.7265 22.317L32.8233 22.2829L32.8266 22.1803L32.6766 22.1756ZM21.38 22.7232L21.2302 22.7305L21.2361 22.8505L21.3544 22.871L21.38 22.7232ZM21.0183 15.3233L21.1681 15.316L21.1641 15.234L21.093 15.1932L21.0183 15.3233ZM6.59393 14.4524L6.44504 14.4342L6.41788 14.6565L6.63377 14.597L6.59393 14.4524ZM18.7377 6.92704L18.6895 7.06909V7.06909L18.7377 6.92704ZM24.0415 13.605L23.8922 13.6194L23.9017 13.7183L23.9965 13.7481L24.0415 13.605ZM32.5764 17.3572C32.5759 19.1808 32.5713 20.7726 32.5267 22.1708L32.8266 22.1803C32.8714 20.7766 32.8759 19.1802 32.8764 17.3573L32.5764 17.3572ZM21.3544 22.871C24.9823 23.499 29.569 23.4296 32.7265 22.317L32.6268 22.0341C29.5336 23.124 25.0027 23.198 21.4056 22.5754L21.3544 22.871ZM20.8685 15.3306L21.2302 22.7305L21.5298 22.7158L21.1681 15.316L20.8685 15.3306ZM6.63377 14.597C13.7659 12.6323 18.4513 14.0235 20.9437 15.4534L21.093 15.1932C18.5281 13.7217 13.7599 12.3228 6.5541 14.3078L6.63377 14.597ZM18.7859 6.785C14.4295 5.30669 11.4476 6.26148 9.50083 8.08526C7.56579 9.89801 6.67546 12.5484 6.44504 14.4342L6.74283 14.4706C6.96785 12.6289 7.83842 10.0537 9.70593 8.30419C11.5617 6.56571 14.4239 5.62159 18.6895 7.06909L18.7859 6.785ZM24.1908 13.5906C23.8243 9.79502 21.4319 7.68289 18.7859 6.785L18.6895 7.06909C21.2464 7.93674 23.5392 9.96337 23.8922 13.6194L24.1908 13.5906ZM32.8026 17.2281C30.2257 15.7065 26.4648 14.21 24.0865 13.4619L23.9965 13.7481C26.3613 14.4919 30.0992 15.9802 32.6501 17.4864L32.8026 17.2281Z" fill="#25242E"/>
<path d="M16.531 34.7721L16.7749 27.2855L9.45536 28.198L9.65517 35.0705L16.531 34.7721Z" fill="white"/>
<path d="M6.10797 20.1976C5.54028 17.8048 6.2553 15.2626 6.55285 14.4113C8.58575 13.6342 12.6535 13.5125 13.8894 13.5256C15.6332 13.5441 18.7877 14.1153 21.0183 15.3233C21.0283 16.9041 21.1476 19.6955 21.7663 18.6592C22.5397 17.3639 25.3234 17.8005 25.1381 20.117C24.9525 22.4376 22.6077 22.3676 21.7153 22.0883C19.3802 27.6486 15.4057 28.7206 12.5621 29.0595C4.82114 29.9819 4.82823 22.8611 6.10797 20.1976Z" fill="white" stroke="#25242E" stroke-width="0.3"/>
<path d="M9.67647 19.0077C10.5138 18.9983 10.296 17.1211 10.2189 16.2362C9.45997 16.032 9.25572 16.7909 8.97835 16.3093C8.73385 17.2381 8.83917 19.0172 9.67647 19.0077Z" fill="#4B4B4B"/>
<path d="M15.4205 19.3006C16.2578 19.2912 16.5719 17.9961 16.4948 17.1112C15.9101 16.6669 15.0386 16.8098 15.1074 16.5262C14.8629 17.455 14.5832 19.3101 15.4205 19.3006Z" fill="#4B4B4B"/>
<path d="M17.0256 18.0882C16.7297 17.3156 15.7147 16.0707 14.022 17.2719" stroke="#474747" stroke-width="0.3"/>
<path d="M11.4966 17.4244C11.2566 16.6196 10.1297 15.4391 7.54169 17.1559" stroke="#474747" stroke-width="0.3"/>
<ellipse rx="2.00267" ry="1.01605" transform="matrix(-0.999979 -0.00651765 -0.00651765 0.999979 10.4718 22.9437)" fill="#DDA6FF"/>
<path d="M13.2581 22.3463C13.0477 22.8169 10.9438 23.707 8.30616 23.0122" stroke="#25242E" stroke-width="0.3"/>
</svg>
