<svg width="34" height="38" viewBox="0 0 34 38" fill="none" xmlns="http://www.w3.org/2000/svg">
<rect width="33.6792" height="33.6792" rx="8" fill="#DDA6FF"/>
<path d="M16.2964 35.3088L15.1237 27.6898L22.7146 27.7192L23.3581 34.7656L16.2964 35.3088Z" fill="white"/>
<path d="M25.1477 19.1325C25.4326 16.6177 24.6857 14.3229 24.2767 13.4899C22.2318 13.1687 18.0311 12.4793 17.5878 12.2907C17.1446 12.102 11.915 14.5991 9.35559 15.8713C9.54036 17.4876 9.71991 20.4745 8.95995 19.4921C8.01 18.2641 5.21974 19.0536 5.69478 21.3975C6.17065 23.7455 8.55774 23.3847 9.43506 22.9893C12.5066 28.3822 16.6996 28.9872 19.6467 28.9827C27.6693 28.9702 26.7838 21.6959 25.1477 19.1325Z" fill="white" stroke="#25242E" stroke-width="0.3"/>
<path d="M22.4416 19.4433C21.585 19.537 21.5759 17.5922 21.5455 16.6786C22.2958 16.3763 22.5981 17.1266 22.822 16.6003C23.1864 17.519 23.2983 19.3497 22.4416 19.4433Z" fill="#4B4B4B"/>
<path d="M16.609 20.4511C15.7523 20.5448 15.2717 19.2603 15.2413 18.3468C15.7839 17.8207 16.692 17.8592 16.5867 17.5779C16.951 18.4967 17.4656 20.3575 16.609 20.4511Z" fill="#4B4B4B"/>
<path d="M14.8195 19.4104C15.0266 18.5845 15.91 17.1874 17.7876 18.2058" stroke="#474747" stroke-width="0.3"/>
<path d="M20.3866 18.0501C20.5325 17.1982 21.5382 15.8532 24.3941 17.2879" stroke="#474747" stroke-width="0.3"/>
<path fill-rule="evenodd" clip-rule="evenodd" d="M8.64866 33.5322C5.68617 33.3092 3.7553 32.7481 2.34314 31.336C1.77376 30.7666 1.34273 30.1129 1.01645 29.3412L4.93846 16.2656C6.69996 12.2657 11.2405 4.74397 20.1724 9.79631C22.4482 8.62176 27.3876 9.9899 28.2615 18.2855L25.5034 18.5205L24.2451 13.8825L23.1807 16.3835L19.9107 16.5557L20.2361 14.9566C20.1776 14.8158 19.9754 14.5676 19.6346 14.7006C19.2939 14.8336 19.0752 15.7368 19.0085 16.1718L18.4071 15.9158L18.1566 16.5043L17.1041 16.0563L16.7284 16.9391L15.5255 16.4271C15.6341 16.5892 15.7486 16.9044 15.3377 16.8685C15.1383 16.8511 14.8803 17.0386 14.5864 17.2522C14.1231 17.5889 13.5706 17.9903 13.0186 17.7554C12.5972 19.7192 11.5312 26.3358 12.3152 29.1541C12.7116 30.5793 10.7128 32.3155 8.64866 33.5322Z" fill="#25242E"/>
<path d="M23.035 11.7182C24.1831 12.2661 26.5743 14.1125 26.9539 17.1156" stroke="white" stroke-width="0.3"/>
<ellipse cx="21.028" cy="23.5628" rx="2.06097" ry="1.04563" transform="rotate(-7.25743 21.028 23.5628)" fill="#DDA6FF"/>
<path d="M18.1076 23.2961C18.3806 23.751 20.64 24.4009 23.2491 23.3657" stroke="#25242E" stroke-width="0.3"/>
<path d="M7.73889 21.3696L6.68636 20.9217V20.9217" stroke="#25242E" stroke-width="0.3"/>
</svg>
