<svg width="85" height="48" viewBox="0 0 85 48" fill="none" xmlns="http://www.w3.org/2000/svg">
<path d="M18.734 38L8.55 23.94L18.316 11.058H26.6L15.466 25.042L15.428 22.648L27.018 38H18.734ZM2.394 38V11.058H9.196V38H2.394ZM29.6353 38L23.7453 19.418H30.1293L33.6253 32.946L31.7253 32.984L35.8673 19.418H41.7573L45.8993 32.984L43.9993 32.946L47.5333 19.418H53.9173L48.0273 38H42.0613L38.1093 25.156H39.5913L35.5253 38H29.6353ZM72.9998 31.142V27.551H76.7798C77.2478 27.551 77.6708 27.461 78.0488 27.281C78.4448 27.083 78.7598 26.795 78.9938 26.417C79.2278 26.039 79.3448 25.571 79.3448 25.013C79.3448 24.455 79.2278 23.987 78.9938 23.609C78.7598 23.213 78.4448 22.925 78.0488 22.745C77.6708 22.547 77.2478 22.448 76.7798 22.448H72.9998V18.857H77.6168C78.8408 18.857 79.9478 19.109 80.9378 19.613C81.9278 20.099 82.7108 20.801 83.2868 21.719C83.8628 22.619 84.1508 23.717 84.1508 25.013C84.1508 26.273 83.8628 27.371 83.2868 28.307C82.7108 29.225 81.9278 29.927 80.9378 30.413C79.9478 30.899 78.8408 31.142 77.6168 31.142H72.9998ZM69.1658 38V18.857H73.9988V38H69.1658Z" fill="black"/>
<circle cx="60.5" cy="32.5" r="5.5" fill="#BE78EA"/>
</svg>
